# xmcd
#
# Track frame offsets:
#	150
#	16634
#	29797
#	46075
#	63188
#	74980
#	89630
#	103052
#	119977
#	138892
#	156697
#	173939
#	186497
#	202468
#	218172
#	237812
#	252074
#
# Disc length: 3567 seconds
#
# Revision: 0
# Processed by: cddbd v1.5.2PL0 Copyright (c) Steve Scherf et al.
# Submitted via: EasyCDDAExtractor 8.2.1.1
#
DISCID=0f0ded11
DTITLE=ROGER E ROGERIO - AO VIVO
DYEAR=2008
DGENRE=Country
TTITLE0=ADRENALINA
TTITLE1=UMA CHANCE A MAIS
TTITLE2=PEDRAS
TTITLE3=RAZÃO E SENTIMENTO
TTITLE4=A CASA CAIU
TTITLE5=A TURMA DA CANA
TTITLE6=VAI
TTITLE7=FAZ MAIS UMA VEZ COMIGO
TTITLE8=POUT-POURRI(ENTRE TAPAS E BEIJOS-CADE VOCE)
TTITLE9=VAI BOMBAR
TTITLE10=MELHER, PINGA E CERVEJA
TTITLE11=TROPÉ (BOTA PRA QUEBRAR)
TTITLE12=PRATO DO DIA
TTITLE13=A UNICA
TTITLE14=ERTERNAMENTE (PART. GRUPO SEM COMPROMISSO)
TTITLE15=ASSIM É QUE SE FAZ
TTITLE16=ADRENALINA
EXTD=
EXTT0=
EXTT1=
EXTT2=
EXTT3=
EXTT4=
EXTT5=
EXTT6=
EXTT7=
EXTT8=
EXTT9=
EXTT10=
EXTT11=
EXTT12=
EXTT13=
EXTT14=
EXTT15=
EXTT16=
PLAYORDER=
